<svg width="1440" height="548" viewBox="0 0 1440 548" fill="none" xmlns="http://www.w3.org/2000/svg">
<path d="M71.0312 169.977V282.086H127.086C134.768 282.086 141.995 280.654 148.766 277.789C155.536 274.794 161.461 270.758 166.539 265.68C171.617 260.602 175.589 254.677 178.453 247.906C181.448 241.005 182.945 233.714 182.945 226.031C182.945 218.349 181.448 211.122 178.453 204.352C175.589 197.451 171.617 191.461 166.539 186.383C161.461 181.305 155.536 177.333 148.766 174.469C141.995 171.474 134.768 169.977 127.086 169.977H71.0312ZM71.0312 394H14.9766V113.922H127.086C137.372 113.922 147.268 115.289 156.773 118.023C166.279 120.628 175.133 124.404 183.336 129.352C191.669 134.169 199.221 140.029 205.992 146.93C212.893 153.701 218.753 161.253 223.57 169.586C228.518 177.919 232.294 186.839 234.898 196.344C237.633 205.849 239 215.745 239 226.031C239 241.396 236.07 255.914 230.211 269.586C224.352 283.128 216.344 294.977 206.188 305.133C196.031 315.289 184.117 323.297 170.445 329.156C156.904 335.016 142.451 337.945 127.086 337.945H71.0312V394ZM329.234 127.984C329.234 132.932 328.258 137.555 326.305 141.852C324.482 146.148 321.943 149.924 318.688 153.18C315.432 156.305 311.591 158.844 307.164 160.797C302.867 162.62 298.245 163.531 293.297 163.531C288.349 163.531 283.661 162.62 279.234 160.797C274.938 158.844 271.161 156.305 267.906 153.18C264.781 149.924 262.242 146.148 260.289 141.852C258.466 137.555 257.555 132.932 257.555 127.984C257.555 123.167 258.466 118.609 260.289 114.312C262.242 109.885 264.781 106.109 267.906 102.984C271.161 99.7292 274.938 97.1901 279.234 95.3672C283.661 93.4141 288.349 92.4375 293.297 92.4375C298.245 92.4375 302.867 93.4141 307.164 95.3672C311.591 97.1901 315.432 99.7292 318.688 102.984C321.943 106.109 324.482 109.885 326.305 114.312C328.258 118.609 329.234 123.167 329.234 127.984ZM320.055 394H266.344V184.82H320.055V394ZM414.586 394H360.875V101.617H414.586V285.992L494.078 185.211H555.406L486.07 272.32L555.406 394H494.078L451.695 318.023L414.586 367.242V394ZM772.398 394H759.508L738.805 365.289C733.727 369.846 728.323 374.143 722.594 378.18C716.995 382.086 711.07 385.536 704.82 388.531C698.57 391.396 692.125 393.674 685.484 395.367C678.974 397.06 672.333 397.906 665.562 397.906C650.849 397.906 636.982 395.432 623.961 390.484C611.07 385.536 599.742 378.375 589.977 369C580.341 359.495 572.724 347.906 567.125 334.234C561.526 320.562 558.727 305.003 558.727 287.555C558.727 271.279 561.526 256.37 567.125 242.828C572.724 229.156 580.341 217.438 589.977 207.672C599.742 197.906 611.07 190.354 623.961 185.016C636.982 179.547 650.849 176.812 665.562 176.812C672.333 176.812 679.039 177.659 685.68 179.352C692.32 181.044 698.766 183.388 705.016 186.383C711.266 189.378 717.19 192.893 722.789 196.93C728.518 200.966 733.857 205.328 738.805 210.016L759.508 185.211H772.398V394ZM718.688 287.555C718.688 280.263 717.255 273.232 714.391 266.461C711.656 259.56 707.88 253.505 703.062 248.297C698.245 242.958 692.581 238.727 686.07 235.602C679.69 232.346 672.854 230.719 665.562 230.719C658.271 230.719 651.37 231.956 644.859 234.43C638.479 236.904 632.88 240.549 628.062 245.367C623.375 250.185 619.664 256.174 616.93 263.336C614.195 270.367 612.828 278.44 612.828 287.555C612.828 296.669 614.195 304.807 616.93 311.969C619.664 319 623.375 324.924 628.062 329.742C632.88 334.56 638.479 338.206 644.859 340.68C651.37 343.154 658.271 344.391 665.562 344.391C672.854 344.391 679.69 342.828 686.07 339.703C692.581 336.448 698.245 332.216 703.062 327.008C707.88 321.669 711.656 315.615 714.391 308.844C717.255 301.943 718.688 294.846 718.688 287.555ZM996.031 226.422L956.969 265.68C955.016 260.211 952.346 255.328 948.961 251.031C945.576 246.604 941.734 242.893 937.438 239.898C933.271 236.904 928.714 234.625 923.766 233.062C918.818 231.5 913.74 230.719 908.531 230.719C901.24 230.719 894.339 232.216 887.828 235.211C881.448 238.206 875.849 242.438 871.031 247.906C866.344 253.245 862.633 259.625 859.898 267.047C857.164 274.469 855.797 282.672 855.797 291.656C855.797 298.948 857.164 305.784 859.898 312.164C862.633 318.544 866.344 324.143 871.031 328.961C875.849 333.779 881.448 337.555 887.828 340.289C894.339 343.023 901.24 344.391 908.531 344.391C913.74 344.391 918.753 343.674 923.57 342.242C928.388 340.81 932.88 338.792 937.047 336.188C941.344 333.453 945.12 330.198 948.375 326.422C951.76 322.516 954.495 318.219 956.578 313.531L995.641 352.789C990.693 359.82 984.964 366.135 978.453 371.734C972.073 377.333 965.107 382.086 957.555 385.992C950.133 389.898 942.255 392.828 933.922 394.781C925.719 396.865 917.255 397.906 908.531 397.906C893.818 397.906 879.951 395.172 866.93 389.703C854.039 384.104 842.711 376.487 832.945 366.852C823.31 357.216 815.693 345.953 810.094 333.062C804.495 320.172 801.695 306.37 801.695 291.656C801.695 275.641 804.495 260.667 810.094 246.734C815.693 232.802 823.31 220.693 832.945 210.406C842.711 199.99 854.039 191.786 866.93 185.797C879.951 179.807 893.818 176.812 908.531 176.812C917.255 176.812 925.784 177.919 934.117 180.133C942.581 182.346 950.589 185.602 958.141 189.898C965.823 194.065 972.854 199.208 979.234 205.328C985.745 211.448 991.344 218.479 996.031 226.422ZM1075.52 394H1022.2V101.617H1075.52V194C1081.9 189.182 1088.48 185.797 1095.25 183.844C1102.02 181.76 1108.92 180.719 1115.95 180.719C1128.84 180.719 1140.95 183.193 1152.28 188.141C1163.61 192.958 1173.44 199.664 1181.77 208.258C1190.24 216.721 1196.88 226.682 1201.7 238.141C1206.64 249.469 1209.12 261.578 1209.12 274.469V394H1155.41V274.469H1155.8C1155.8 269 1154.76 263.857 1152.67 259.039C1150.59 254.091 1147.72 249.794 1144.08 246.148C1140.43 242.503 1136.2 239.638 1131.38 237.555C1126.57 235.471 1121.42 234.43 1115.95 234.43C1110.35 234.43 1105.08 235.471 1100.13 237.555C1095.18 239.638 1090.89 242.503 1087.24 246.148C1083.6 249.794 1080.73 254.091 1078.65 259.039C1076.57 263.857 1075.52 269 1075.52 274.469V394ZM1399.35 369.586C1395.05 373.492 1390.43 377.203 1385.48 380.719C1380.67 384.104 1375.59 387.099 1370.25 389.703C1364.91 392.177 1359.38 394.13 1353.65 395.562C1348.05 397.125 1342.32 397.906 1336.46 397.906C1323.57 397.906 1311.46 395.628 1300.13 391.07C1288.8 386.513 1278.84 380.068 1270.25 371.734C1261.79 363.271 1255.08 353.049 1250.13 341.07C1245.32 328.961 1242.91 315.419 1242.91 300.445V184.82H1296.03V300.445C1296.03 307.477 1297.07 313.792 1299.16 319.391C1301.37 324.859 1304.3 329.482 1307.95 333.258C1311.59 337.034 1315.82 339.898 1320.64 341.852C1325.59 343.805 1330.86 344.781 1336.46 344.781C1341.93 344.781 1347.07 343.544 1351.89 341.07C1356.84 338.466 1361.14 335.081 1364.78 330.914C1368.43 326.747 1371.29 322.06 1373.38 316.852C1375.46 311.513 1376.5 306.044 1376.5 300.445V184.82H1429.82V394H1416.93L1399.35 369.586Z" fill="white" fill-opacity="0.2"/>
<path d="M233.523 302.982V387.064H275.564C281.326 387.064 286.746 385.99 291.824 383.842C296.902 381.596 301.346 378.568 305.154 374.76C308.963 370.951 311.941 366.508 314.09 361.43C316.336 356.254 317.459 350.785 317.459 345.023C317.459 339.262 316.336 333.842 314.09 328.764C311.941 323.588 308.963 319.096 305.154 315.287C301.346 311.479 296.902 308.5 291.824 306.352C286.746 304.105 281.326 302.982 275.564 302.982H233.523ZM233.523 471H191.482V260.941H275.564C283.279 260.941 290.701 261.967 297.83 264.018C304.959 265.971 311.6 268.803 317.752 272.514C324.002 276.127 329.666 280.521 334.744 285.697C339.92 290.775 344.314 296.439 347.928 302.689C351.639 308.939 354.471 315.629 356.424 322.758C358.475 329.887 359.5 337.309 359.5 345.023C359.5 356.547 357.303 367.436 352.908 377.689C348.514 387.846 342.508 396.732 334.891 404.35C327.273 411.967 318.338 417.973 308.084 422.367C297.928 426.762 287.088 428.959 275.564 428.959H233.523V471ZM427.176 271.488C427.176 275.199 426.443 278.666 424.979 281.889C423.611 285.111 421.707 287.943 419.266 290.385C416.824 292.729 413.943 294.633 410.623 296.098C407.4 297.465 403.934 298.148 400.223 298.148C396.512 298.148 392.996 297.465 389.676 296.098C386.453 294.633 383.621 292.729 381.18 290.385C378.836 287.943 376.932 285.111 375.467 281.889C374.1 278.666 373.416 275.199 373.416 271.488C373.416 267.875 374.1 264.457 375.467 261.234C376.932 257.914 378.836 255.082 381.18 252.738C383.621 250.297 386.453 248.393 389.676 247.025C392.996 245.561 396.512 244.828 400.223 244.828C403.934 244.828 407.4 245.561 410.623 247.025C413.943 248.393 416.824 250.297 419.266 252.738C421.707 255.082 423.611 257.914 424.979 261.234C426.443 264.457 427.176 267.875 427.176 271.488ZM420.291 471H380.008V314.115H420.291V471ZM491.189 471H450.906V251.713H491.189V389.994L550.809 314.408H596.805L544.803 379.74L596.805 471H550.809L519.021 414.018L491.189 450.932V471ZM759.549 471H749.881L734.354 449.467C730.545 452.885 726.492 456.107 722.195 459.135C717.996 462.064 713.553 464.652 708.865 466.898C704.178 469.047 699.344 470.756 694.363 472.025C689.48 473.295 684.5 473.93 679.422 473.93C668.387 473.93 657.986 472.074 648.221 468.363C638.553 464.652 630.057 459.281 622.732 452.25C615.506 445.121 609.793 436.43 605.594 426.176C601.395 415.922 599.295 404.252 599.295 391.166C599.295 378.959 601.395 367.777 605.594 357.621C609.793 347.367 615.506 338.578 622.732 331.254C630.057 323.93 638.553 318.266 648.221 314.262C657.986 310.16 668.387 308.109 679.422 308.109C684.5 308.109 689.529 308.744 694.51 310.014C699.49 311.283 704.324 313.041 709.012 315.287C713.699 317.533 718.143 320.17 722.342 323.197C726.639 326.225 730.643 329.496 734.354 333.012L749.881 314.408H759.549V471ZM719.266 391.166C719.266 385.697 718.191 380.424 716.043 375.346C713.992 370.17 711.16 365.629 707.547 361.723C703.934 357.719 699.686 354.545 694.803 352.201C690.018 349.76 684.891 348.539 679.422 348.539C673.953 348.539 668.777 349.467 663.895 351.322C659.109 353.178 654.91 355.912 651.297 359.525C647.781 363.139 644.998 367.631 642.947 373.002C640.896 378.275 639.871 384.33 639.871 391.166C639.871 398.002 640.896 404.105 642.947 409.477C644.998 414.75 647.781 419.193 651.297 422.807C654.91 426.42 659.109 429.154 663.895 431.01C668.777 432.865 673.953 433.793 679.422 433.793C684.891 433.793 690.018 432.621 694.803 430.277C699.686 427.836 703.934 424.662 707.547 420.756C711.16 416.752 713.992 412.211 716.043 407.133C718.191 401.957 719.266 396.635 719.266 391.166ZM927.273 345.316L897.977 374.76C896.512 370.658 894.51 366.996 891.971 363.773C889.432 360.453 886.551 357.67 883.328 355.424C880.203 353.178 876.785 351.469 873.074 350.297C869.363 349.125 865.555 348.539 861.648 348.539C856.18 348.539 851.004 349.662 846.121 351.908C841.336 354.154 837.137 357.328 833.523 361.43C830.008 365.434 827.225 370.219 825.174 375.785C823.123 381.352 822.098 387.504 822.098 394.242C822.098 399.711 823.123 404.838 825.174 409.623C827.225 414.408 830.008 418.607 833.523 422.221C837.137 425.834 841.336 428.666 846.121 430.717C851.004 432.768 856.18 433.793 861.648 433.793C865.555 433.793 869.314 433.256 872.928 432.182C876.541 431.107 879.91 429.594 883.035 427.641C886.258 425.59 889.09 423.148 891.531 420.316C894.07 417.387 896.121 414.164 897.684 410.648L926.98 440.092C923.27 445.365 918.973 450.102 914.09 454.301C909.305 458.5 904.08 462.064 898.416 464.994C892.85 467.924 886.941 470.121 880.691 471.586C874.539 473.148 868.191 473.93 861.648 473.93C850.613 473.93 840.213 471.879 830.447 467.777C820.779 463.578 812.283 457.865 804.959 450.639C797.732 443.412 792.02 434.965 787.82 425.297C783.621 415.629 781.521 405.277 781.521 394.242C781.521 382.23 783.621 371 787.82 360.551C792.02 350.102 797.732 341.02 804.959 333.305C812.283 325.492 820.779 319.34 830.447 314.848C840.213 310.355 850.613 308.109 861.648 308.109C868.191 308.109 874.588 308.939 880.838 310.6C887.186 312.26 893.191 314.701 898.855 317.924C904.617 321.049 909.891 324.906 914.676 329.496C919.559 334.086 923.758 339.359 927.273 345.316ZM986.893 471H946.902V251.713H986.893V321C991.678 317.387 996.609 314.848 1001.69 313.383C1006.77 311.82 1011.94 311.039 1017.21 311.039C1026.88 311.039 1035.96 312.895 1044.46 316.605C1052.96 320.219 1060.33 325.248 1066.58 331.693C1072.93 338.041 1077.91 345.512 1081.52 354.105C1085.23 362.602 1087.09 371.684 1087.09 381.352V471H1046.8V381.352H1047.1C1047.1 377.25 1046.32 373.393 1044.75 369.779C1043.19 366.068 1041.04 362.846 1038.31 360.111C1035.57 357.377 1032.4 355.229 1028.79 353.666C1025.17 352.104 1021.32 351.322 1017.21 351.322C1013.02 351.322 1009.06 352.104 1005.35 353.666C1001.64 355.229 998.416 357.377 995.682 360.111C992.947 362.846 990.799 366.068 989.236 369.779C987.674 373.393 986.893 377.25 986.893 381.352V471ZM1229.76 452.689C1226.54 455.619 1223.07 458.402 1219.36 461.039C1215.75 463.578 1211.94 465.824 1207.94 467.777C1203.93 469.633 1199.78 471.098 1195.49 472.172C1191.29 473.344 1186.99 473.93 1182.6 473.93C1172.93 473.93 1163.85 472.221 1155.35 468.803C1146.85 465.385 1139.38 460.551 1132.94 454.301C1126.59 447.953 1121.56 440.287 1117.85 431.303C1114.24 422.221 1112.43 412.064 1112.43 400.834V314.115H1152.27V400.834C1152.27 406.107 1153.05 410.844 1154.62 415.043C1156.28 419.145 1158.47 422.611 1161.21 425.443C1163.94 428.275 1167.12 430.424 1170.73 431.889C1174.44 433.354 1178.4 434.086 1182.6 434.086C1186.7 434.086 1190.55 433.158 1194.17 431.303C1197.88 429.35 1201.1 426.811 1203.84 423.686C1206.57 420.561 1208.72 417.045 1210.28 413.139C1211.84 409.135 1212.62 405.033 1212.62 400.834V314.115H1252.62V471H1242.95L1229.76 452.689Z" fill="white"/>
</svg>
